<?xml version="1.0" encoding="utf-8"?>
<!-- Generator: Adobe Illustrator 19.0.0, SVG Export Plug-In . SVG Version: 6.00 Build 0)  -->
<svg version="1.1" baseProfile="tiny" id="Layer_1" xmlns="http://www.w3.org/2000/svg" xmlns:xlink="http://www.w3.org/1999/xlink"
	 x="0px" y="0px" viewBox="0 0 27 10" xml:space="preserve">
<path id="XMLID_9_" fill="#CDD4CD" d="M16.9,6.4h6.5c0.9,0,1.6-0.2,2.1-0.7c0.5-0.5,0.7-1.1,0.7-1.9V1.5h-1.9v1.4
	c0,0.5-0.1,0.9-0.4,1.1c-0.3,0.2-0.7,0.3-1.2,0.3h-6.4c-0.8,0-1.4,0.2-1.9,0.6c-0.5,0.4-0.8,0.8-0.8,1.3h-0.2
	c-0.1-0.5-0.3-0.9-0.8-1.3c-0.4-0.4-1-0.6-1.8-0.6H4.3c-0.6,0-1-0.1-1.2-0.3C2.9,3.7,2.7,3.3,2.7,2.8V1.5H0.8v2.3
	c0,0.9,0.3,1.5,0.8,1.9c0.5,0.4,1.2,0.6,2.1,0.6h6.6c0.8,0,1.4,0.2,1.7,0.6c0.4,0.4,0.5,0.9,0.5,1.6h1.9c0-0.7,0.2-1.2,0.5-1.6
	C15.3,6.6,15.9,6.4,16.9,6.4z"/>
</svg>
