<?xml version="1.0" encoding="utf-8"?>
<!-- Generator: Adobe Illustrator 19.0.0, SVG Export Plug-In . SVG Version: 6.00 Build 0)  -->
<svg version="1.1" baseProfile="tiny" id="Layer_1" xmlns="http://www.w3.org/2000/svg" xmlns:xlink="http://www.w3.org/1999/xlink"
	 x="0px" y="0px" viewBox="0 0 130 75" xml:space="preserve">
<g id="XMLID_33_">
	<path id="XMLID_34_" fill="none" d="M56.7,37.5C56.7,37.5,56.7,37.5,56.7,37.5c0,8.8,3.1,16.8,8.3,23c0.2-0.3,0.5-0.6,0.7-0.8
		c-0.2,0.3-0.4,0.6-0.7,0.8C59.8,54.3,56.7,46.3,56.7,37.5z"/>
	<path id="XMLID_43_" fill="none" d="M69.8,53.2c2.3-4.7,3.6-10,3.6-15.7c0-4.3-0.8-8.4-2.1-12.2c1.4,3.8,2.1,7.9,2.1,12.2
		C73.3,43.1,72.1,48.4,69.8,53.2z"/>
	<path id="XMLID_44_" fill="#00A2C3" d="M65,60.5c-5.2-6.2-8.3-14.3-8.3-23c0,0,0,0,0,0s0,0,0,0c0-8.8,3.1-16.8,8.3-23
		c-6.6-7.9-16.5-13-27.6-13h0c-19.9,0-36,16.1-36,36v0c0,19.9,16.1,36,36,36C48.5,73.5,58.4,68.5,65,60.5L65,60.5
		C65,60.5,65,60.5,65,60.5z"/>
	<path id="XMLID_45_" fill="#022902" d="M56.7,37.5c0,8.8,3.1,16.8,8.3,23c0.2-0.3,0.5-0.6,0.7-0.8c1.6-2,3-4.2,4.1-6.5
		c2.3-4.7,3.6-10,3.6-15.7c0-4.3-0.8-8.4-2.1-12.2c-1.4-4-3.6-7.6-6.2-10.8c0,0,0,0,0,0v0c0,0,0,0,0,0
		C59.8,20.7,56.7,28.7,56.7,37.5C56.7,37.5,56.7,37.5,56.7,37.5z"/>
	<path id="XMLID_46_" fill="#FF4300" d="M128.7,37.5L128.7,37.5c0-19.9-16.1-36-36-36c-11.1,0-21.1,5-27.7,13c0,0,0,0,0,0
		c2.7,3.2,4.8,6.8,6.2,10.8c1.4,3.8,2.1,7.9,2.1,12.2c0,5.6-1.3,10.9-3.6,15.7c-1.1,2.3-2.5,4.5-4.1,6.5c-0.2,0.3-0.4,0.6-0.7,0.8
		c0,0,0,0,0,0l0,0c6.6,7.9,16.5,13,27.7,13C112.5,73.5,128.7,57.4,128.7,37.5z"/>
</g>
</svg>
