<?xml version="1.0" encoding="utf-8"?>
<!-- Generator: Adobe Illustrator 19.0.0, SVG Export Plug-In . SVG Version: 6.00 Build 0)  -->
<svg version="1.1" baseProfile="tiny" id="Layer_1" xmlns="http://www.w3.org/2000/svg" xmlns:xlink="http://www.w3.org/1999/xlink"
	 x="0px" y="0px" viewBox="0 0 252 50" xml:space="preserve">
<g id="XMLID_37_">
	<path id="XMLID_38_" fill="none" d="M222.8,16.1c-0.7-1.1-1.7-2-2.9-2.7c-1.2-0.7-2.8-1-4.7-1c-0.7,0-1.5,0-2.2,0
		c-0.8,0-1.3,0.1-1.7,0.2V36c0.1,0,0.4,0.1,0.7,0.1c0.3,0,0.7,0,1,0c0.4,0,0.7,0,1,0.1c0.3,0,0.6,0,0.8,0c1.9,0,3.5-0.3,4.8-1
		c1.3-0.7,2.3-1.6,3-2.7c0.8-1.1,1.3-2.4,1.6-3.9c0.3-1.5,0.5-3,0.5-4.6c0-1.4-0.1-2.7-0.4-4.1C224,18.5,223.5,17.2,222.8,16.1z"/>
	<path id="XMLID_40_" fill="none" d="M29.1,36.1c0.4,0,0.7,0,1.1,0.1c0.3,0,0.6,0,0.8,0c1.9,0,3.5-0.3,4.8-1
		c1.3-0.7,2.3-1.6,3.1-2.7c0.8-1.1,1.3-2.4,1.6-3.9c0.3-1.5,0.5-3,0.5-4.6c0-1.4-0.1-2.7-0.4-4.1c-0.3-1.4-0.8-2.6-1.5-3.7
		c-0.7-1.1-1.7-2-2.9-2.7c-1.2-0.7-2.8-1-4.7-1c-0.7,0-1.5,0-2.2,0c-0.8,0-1.3,0.1-1.7,0.2V36c0.1,0,0.4,0.1,0.7,0.1
		C28.4,36.1,28.8,36.1,29.1,36.1z"/>
	<polygon id="XMLID_41_" fill="none" points="187.3,20.7 186.3,15.2 186,15.2 185,20.8 182.4,28.5 189.9,28.5 	"/>
	<path id="XMLID_42_" fill="none" d="M128.5,12.4c-0.7,0-1.4,0-2.1,0c-0.7,0-1.2,0.1-1.6,0.2v10.1h2.9c1.9,0,3.4-0.4,4.5-1.3
		c1.1-0.9,1.7-2.3,1.7-4.3c0-1.5-0.5-2.7-1.4-3.5C131.6,12.8,130.3,12.4,128.5,12.4z"/>
	<path id="XMLID_45_" fill="#00A2C3" d="M191.4,34l2.8,7.8h7.2L188.8,6.5h-5.1l-12.6,35.2h6.8l2.7-7.8H191.4z M185,20.8l1-5.5h0.2
		l1.1,5.5l2.6,7.8h-7.5L185,20.8z"/>
	<path id="XMLID_50_" fill="#00A2C3" d="M139.2,23.1c1.3-1.8,2-4.1,2-7c0-1.9-0.4-3.5-1.1-4.8c-0.8-1.3-1.8-2.3-3-3
		c-1.2-0.7-2.7-1.2-4.2-1.5c-1.6-0.3-3.2-0.5-4.8-0.5c-0.7,0-1.5,0-2.3,0.1c-0.8,0-1.7,0.1-2.6,0.1c-0.9,0.1-1.8,0.2-2.7,0.3
		c-0.9,0.1-1.7,0.2-2.5,0.4v34.6h6.8V27.4l3.6,0.7l8,13.7h7.9l-8-13.3l-2.5-1.5C136.1,26.2,137.8,24.9,139.2,23.1z M132.3,21.5
		c-1.1,0.9-2.7,1.3-4.5,1.3h-2.9V12.6c0.4-0.1,0.9-0.2,1.6-0.2c0.7,0,1.4,0,2.1,0c1.8,0,3.2,0.4,4.1,1.3c0.9,0.9,1.4,2,1.4,3.5
		C134,19.2,133.4,20.6,132.3,21.5z"/>
	<polygon id="XMLID_51_" fill="#00A2C3" points="168.8,12.9 168.8,6.8 148.1,6.8 148.1,41.8 169.1,41.8 169.1,35.7 154.9,35.7 
		154.9,27.1 167.6,27.1 167.6,21 154.9,21 154.9,12.9 	"/>
	<path id="XMLID_54_" fill="#00A2C3" d="M227.9,11.2c-1.4-1.6-3.2-2.8-5.3-3.6c-2.2-0.9-4.9-1.3-8-1.3c-0.7,0-1.5,0-2.4,0
		c-0.9,0-1.8,0-2.7,0.1c-0.9,0-1.8,0.1-2.7,0.1c-0.9,0.1-1.7,0.2-2.4,0.2v35.1c0.4,0.1,1.1,0.1,2,0.2c0.9,0,1.8,0.1,2.7,0.1
		c1,0.1,1.9,0.1,2.8,0.1c0.9,0,1.6,0.1,2.1,0.1c3.4,0,6.2-0.5,8.5-1.6c2.3-1,4.1-2.4,5.5-4.1c1.4-1.7,2.4-3.7,3-5.8
		c0.6-2.2,0.9-4.5,0.9-6.9c0-2.6-0.3-5-1-7.1C230.3,14.7,229.3,12.8,227.9,11.2z M224.2,28.5c-0.3,1.5-0.8,2.8-1.6,3.9
		c-0.8,1.1-1.8,2-3,2.7c-1.3,0.7-2.9,1-4.8,1c-0.2,0-0.4,0-0.8,0c-0.3,0-0.7,0-1-0.1c-0.4,0-0.7,0-1,0c-0.3,0-0.5,0-0.7-0.1V12.6
		c0.4-0.1,0.9-0.1,1.7-0.2c0.8,0,1.5,0,2.2,0c1.9,0,3.5,0.3,4.7,1c1.2,0.7,2.2,1.6,2.9,2.7c0.7,1.1,1.2,2.3,1.5,3.7
		c0.3,1.4,0.4,2.8,0.4,4.1C224.7,25.5,224.5,27.1,224.2,28.5z"/>
	<path id="XMLID_55_" fill="#00A2C3" d="M246.8,42.2V31.7c0-1.5,0.4-2.5,1-3.2c0.7-0.7,1.7-1,3-1v-5c-1.3,0-2.2-0.3-3-1
		c-0.7-0.6-1-1.8-1-3.5V7.8c0-1.9-0.5-3.4-1.3-4.5c-0.9-1-2.2-1.6-4-1.6h-6v5.5h2.5c1,0,1.6,0.2,2,0.7c0.4,0.5,0.6,1.2,0.6,2.3v9.7
		c0,1.4,0.4,2.5,1.1,3.4c0.7,0.9,1.5,1.4,2.4,1.5v0.5c-0.9,0.2-1.8,0.6-2.4,1.4c-0.7,0.8-1.1,1.9-1.1,3.3v9.8c0,1.1-0.2,1.9-0.6,2.3
		c-0.4,0.5-1.1,0.7-2,0.7h-2.5v5.5h5.8c1.9,0,3.2-0.6,4.1-1.7C246.4,45.4,246.8,44,246.8,42.2z"/>
	<path id="XMLID_56_" fill="#FF4300" d="M14.1,42.8c-1,0-1.7-0.2-2.1-0.7c-0.4-0.5-0.6-1.2-0.6-2.3v-9.7c0-1.4-0.4-2.5-1.1-3.4
		c-0.7-0.9-1.5-1.4-2.4-1.5v-0.5c0.9-0.2,1.8-0.6,2.5-1.4s1-1.9,1-3.3v-9.8c0-1.1,0.2-1.8,0.6-2.3c0.4-0.5,1.1-0.7,2-0.7h2.5V1.7h-6
		c-1.9,0-3.2,0.6-4.1,1.7C5.6,4.6,5.2,6,5.2,7.8v10.4c0,1.5-0.3,2.5-1,3.2c-0.7,0.7-1.7,1-3,1v5c1.3,0,2.2,0.3,3,1
		c0.7,0.6,1,1.8,1,3.5v10.2c0,1.9,0.5,3.4,1.4,4.5c0.9,1,2.2,1.6,4,1.6h6v-5.5H14.1z"/>
	<path id="XMLID_59_" fill="#FF4300" d="M28,42.3c0.9,0,1.6,0.1,2.1,0.1c3.4,0,6.2-0.5,8.5-1.6c2.3-1,4.1-2.4,5.5-4.1
		c1.4-1.7,2.4-3.7,3-5.8c0.6-2.2,0.9-4.5,0.9-6.9c0-2.6-0.3-5-1-7.1c-0.6-2.2-1.6-4-3-5.6c-1.4-1.6-3.1-2.8-5.3-3.6
		c-2.2-0.9-4.9-1.3-8-1.3c-0.7,0-1.5,0-2.4,0c-0.9,0-1.8,0-2.7,0.1c-0.9,0-1.8,0.1-2.7,0.1c-0.9,0.1-1.7,0.2-2.4,0.2v35.1
		c0.4,0.1,1.1,0.1,2,0.2s1.8,0.1,2.7,0.1C26.2,42.2,27.1,42.2,28,42.3z M27.4,12.6c0.4-0.1,0.9-0.1,1.7-0.2c0.8,0,1.5,0,2.2,0
		c1.9,0,3.5,0.3,4.7,1c1.2,0.7,2.2,1.6,2.9,2.7c0.7,1.1,1.2,2.3,1.5,3.7c0.3,1.4,0.4,2.8,0.4,4.1c0,1.6-0.1,3.1-0.5,4.6
		c-0.3,1.5-0.8,2.8-1.6,3.9c-0.8,1.1-1.8,2-3.1,2.7c-1.3,0.7-2.9,1-4.8,1c-0.2,0-0.4,0-0.8,0c-0.3,0-0.7,0-1.1-0.1c-0.4,0-0.7,0-1,0
		c-0.3,0-0.5,0-0.7-0.1V12.6z"/>
	<polygon id="XMLID_60_" fill="#FF4300" points="87.9,12.9 87.9,6.8 67.2,6.8 67.2,41.8 74,41.8 74,27.6 86.8,27.6 86.8,21.5 
		74,21.5 74,12.9 	"/>
	<rect id="XMLID_61_" x="53.6" y="6.8" fill="#FF4300" width="6.9" height="35"/>
	<polygon id="XMLID_62_" fill="#FF4300" points="113.3,12.9 113.3,6.8 92.6,6.8 92.6,41.8 99.4,41.8 99.4,27.6 112.2,27.6 
		112.2,21.5 99.4,21.5 99.4,12.9 	"/>
</g>
</svg>
